<?xml version="1.0" encoding="utf-8"?>
<!-- Generator: Adobe Illustrator 23.0.6, SVG Export Plug-In . SVG Version: 6.00 Build 0)  -->
<svg version="1.1" id="Laag_1" xmlns="http://www.w3.org/2000/svg" xmlns:xlink="http://www.w3.org/1999/xlink" x="0px" y="0px"
	 viewBox="0 0 384 384.1" style="enable-background:new 0 0 384 384.1;" xml:space="preserve">
<style type="text/css">
	path {fill:#65BB98;}
</style>
<path d="M204,384.1c-8,0-16,0-24,0c-0.8-0.2-1.7-0.5-2.5-0.6c-8.8-1.3-17.6-2.1-26.3-3.9C76.8,364.8,15.1,300.8,3,226
	c-1.2-7.3-2-14.6-3-21.8c0-8,0-16,0-24c1-7.7,1.8-15.4,3.2-22.9C23.9,40.8,147.3-29.3,258.5,11.9C349.6,45.7,401,141.4,378.9,236.2
	c-17.4,74.5-78.8,132.4-153.8,145C218.1,382.4,211,383.2,204,384.1z M192.1,361.6c93.5-0.1,169.6-76.4,169.4-169.7
	c-0.2-93.4-76.1-169.2-169.4-169.3C98.7,22.6,22.5,98.7,22.5,192.1C22.5,285.6,98.8,361.7,192.1,361.6z"/>
<path d="M192.2,45.1c81,0.2,146.9,66.2,146.8,147.1c-0.1,81.1-66.4,147.2-147.4,146.9c-81-0.3-146.8-66.5-146.6-147.3
	C45.3,110.8,111.3,44.9,192.2,45.1z M67.5,191.9c-0.1,68.6,55.7,124.6,124.3,124.7c68.6,0.1,124.6-55.7,124.7-124.3
	c0.1-68.6-55.7-124.6-124.3-124.7C123.6,67.5,67.6,123.3,67.5,191.9z"/>
<path d="M203.1,181c30.6,0,60.6,0,90.7,0c0,7.5,0,14.7,0,22.1c-37.5,0-75.1,0-112.8,0c0-37.5,0-75.1,0-112.8c7.3,0,14.5,0,22.1,0
	C203.1,120.3,203.1,150.4,203.1,181z"/>
<path d="M142.5,128.9c-3.8-6.7-7.4-12.9-11.2-19.5c6.5-3.8,12.8-7.4,19.4-11.2c3.7,6.5,7.4,12.8,11.3,19.4
	C155.6,121.4,149.3,125,142.5,128.9z"/>
<path d="M98.1,233.4c6.7-3.9,12.9-7.5,19.5-11.2c3.7,6.4,7.3,12.6,11.2,19.4c-6.4,3.7-12.7,7.4-19.4,11.3
	C105.6,246.4,101.9,240.1,98.1,233.4z"/>
<path d="M98.1,150.8c3.8-6.5,7.3-12.7,11.2-19.4c6.4,3.7,12.7,7.3,19.5,11.2c-3.8,6.6-7.5,13-11.3,19.5
	C110.9,158.3,104.6,154.6,98.1,150.8z"/>
<path d="M274.7,252.8c-6.6-3.8-12.9-7.5-19.4-11.3c3.9-6.7,7.5-13,11.2-19.4c6.6,3.8,12.9,7.5,19.4,11.2
	C282.1,240,278.5,246.3,274.7,252.8z"/>
<path d="M233.3,286.1c-3.8-6.6-7.5-12.9-11.2-19.5c6.4-3.7,12.7-7.3,19.4-11.2c3.7,6.5,7.4,12.8,11.3,19.4
	C246.2,278.6,240,282.2,233.3,286.1z"/>
<path d="M90.3,181c7.4,0,14.6,0,22,0c0,7.4,0,14.7,0,22.2c-7.4,0-14.5,0-22,0C90.3,195.9,90.3,188.6,90.3,181z"/>
<path d="M162,266.6c-3.8,6.5-7.4,12.9-11.2,19.5c-6.5-3.8-12.8-7.4-19.5-11.2c3.8-6.5,7.4-12.8,11.2-19.4
	C149.1,259.2,155.5,262.8,162,266.6z"/>
<path d="M202.9,294c-7.3,0-14.5,0-22,0c0-7.4,0-14.7,0-22.2c7.3,0,14.5,0,22,0C202.9,279,202.9,286.3,202.9,294z"/>
</svg>
