<?xml version="1.0" encoding="utf-8"?>
<!-- Generator: Adobe Illustrator 23.0.6, SVG Export Plug-In . SVG Version: 6.00 Build 0)  -->
<svg version="1.1" id="Laag_1" xmlns="http://www.w3.org/2000/svg" xmlns:xlink="http://www.w3.org/1999/xlink" x="0px" y="0px"
	 viewBox="0 0 383.2 384.7" style="enable-background:new 0 0 383.2 384.7;" xml:space="preserve">
<style type="text/css">
    path {fill:#65BB98;}
</style>
<g>
	<path d="M0,22.6C7.2,15.2,14.4,7.8,21.9,0c56.8,57.1,113,113.6,169.7,170.6C248.5,113.3,304.8,56.8,360.9,0.3
		c7.9,8,15.1,15.3,22.1,22.3C327,78.9,270.8,135.5,214.8,191.8c56.3,56.6,112.5,113.2,168.4,169.5c-7.1,7.1-14.4,14.4-22.1,22.1
		C305.2,327.2,249,270.7,192.3,213.7C135.4,270.9,79.2,327.5,22.2,384.7c-7.9-8.2-15.1-15.6-22.2-23.1c0-0.3,0-0.5,0-0.8
		c1-0.7,2-1.4,2.9-2.2c54.8-54.6,109.5-109.2,164.2-163.9c0.9-0.9,1.6-1.8,2.5-2.7c-0.7-0.8-1.2-1.3-1.7-1.8
		C112.7,135.2,57.5,80.1,2.3,25.1C1.7,24.4,0.8,24,0,23.4C0,23.1,0,22.9,0,22.6z"/>
</g>
</svg>
