<?xml version="1.0" encoding="utf-8"?>
<!-- Generator: Adobe Illustrator 23.0.6, SVG Export Plug-In . SVG Version: 6.00 Build 0)  -->
<svg version="1.1" id="Laag_1" xmlns="http://www.w3.org/2000/svg" xmlns:xlink="http://www.w3.org/1999/xlink" x="0px" y="0px"
	 viewBox="0 0 314.9 384.1" style="enable-background:new 0 0 314.9 384.1;" xml:space="preserve">
<style type="text/css">
	.st0{fill:#FFFFFF;}
</style>
<g>
	<path class="st0" d="M224.8,21.8c1,1.4,1.5,2.1,1.9,2.8c11.2,19.5,22.7,38.8,33.6,58.4c12.7,22.9,24.3,46.4,33.3,71.1
		c4.7,12.9,7.8,26,5.6,40c-5.6,34.2-33.5,60-68.5,63.1c-33.3,2.9-65.8-18.5-76.7-50.7c-0.6-1.8-1-3.6-1.8-5.3
		c-1.6-3.3-5.5-4.7-8.9-3.6c-3.4,1.2-5.6,4.7-5,8.3c0.2,1.2,0.6,2.4,1,3.6c12.3,34.9,36.7,56.5,73.3,61.7
		c36.8,5.3,66.4-8.8,87.5-39.5c12-17.4,17.2-37.2,14.1-58.3c-2.3-16.2-8.6-31.2-15.1-46.1c-18.7-42.5-41.9-82.6-66.5-121.8
		c-4.6-7.3-10.6-7.4-15,0.1c-12.2,20.4-24.4,40.7-36.1,61.3c-13.8,24.3-26.4,49.3-36.6,75.4c-2,5.1-0.5,9.3,3.8,10.9
		c4.2,1.6,8.1-0.3,10-5.2c12-30.7,27.6-59.5,43.8-88.1C209.6,47.2,217.1,34.9,224.8,21.8z M52.5,274.6c35.5,0.1,62.6-36.2,48.4-71.1
		c-10.9-26.9-26-51.4-42.1-75.3c-3.5-5.2-9.4-4.9-13,0.4c-14.6,21.5-28.4,43.5-38.7,67.4c-3.6,8.2-6.9,16.7-7.1,25.8
		C-0.4,250.7,23.5,274.6,52.5,274.6z M227,242.3c31.1-0.5,57.9-27.6,58-58.6c0-5.2-2.8-8.6-7.2-8.8c-4.5-0.2-7.4,3.2-7.9,8.5
		c-0.5,4.6-1,9.2-2.5,13.5c-6,17.9-22.3,29.7-41.3,30.4c-4.7,0.2-7.6,2.2-8.5,5.9C216.4,238.5,220.5,242.5,227,242.3z M149.9,175
		c0-4-3.2-7.4-7.2-7.5c-4.1-0.2-7.7,3.3-7.7,7.4c0,4,3.2,7.4,7.2,7.6C146.3,182.5,149.9,179.1,149.9,175z"/>
	<path d="M129.7,384.1c-7.7-1.8-15-4.4-21.3-9.5c-16.6-13.2-22.3-33.3-14.9-53.7c7.1-19.5,17.6-37.2,28.4-54.7
		c2.2-3.5,4.3-7,6.7-10.4c3.3-4.7,9.3-5.2,12.3-0.6c14.4,22.2,28.2,44.7,37,70c7.7,22.2-7.7,53.2-35.6,58.3
		c-0.7,0.1-1.4,0.5-2.1,0.7C136.7,384.1,133.2,384.1,129.7,384.1z M135,273.4c-3.6,6.1-6.9,11.4-10,16.8
		c-7.3,13-14.8,25.8-18.9,40.2c-5.3,18.4,10.5,39.1,29.5,38.7c18.4-0.3,33.6-20.8,28.2-38.7C157.6,310,146.1,292.2,135,273.4z"/>
	<path d="M224.8,21.8c-7.7,13.1-15.2,25.5-22.3,38.1c-16.2,28.6-31.9,57.4-43.8,88.1c-1.9,4.9-5.8,6.8-10,5.2
		c-4.3-1.6-5.8-5.8-3.8-10.9c10.1-26.1,22.8-51.1,36.6-75.4c11.7-20.6,24-40.9,36.1-61.3c4.4-7.4,10.4-7.3,15-0.1
		c24.6,39.3,47.7,79.4,66.5,121.8c6.6,14.9,12.8,29.9,15.1,46.1c3.1,21.2-2.1,40.9-14.1,58.3c-21.1,30.6-50.7,44.7-87.5,39.5
		c-36.5-5.2-60.9-26.7-73.3-61.7c-0.4-1.2-0.8-2.4-1-3.6c-0.6-3.6,1.5-7.1,5-8.3c3.4-1.2,7.3,0.3,8.9,3.6c0.8,1.7,1.2,3.5,1.8,5.3
		c10.9,32.2,43.4,53.6,76.7,50.7c35-3.1,62.9-28.9,68.5-63.1c2.3-14-0.9-27-5.6-40C284.7,129.4,273,106,260.3,83
		c-10.9-19.7-22.4-39-33.6-58.4C226.3,23.9,225.8,23.2,224.8,21.8z"/>
	<path d="M52.5,274.6c-29,0-53-23.9-52.5-52.7c0.1-9.2,3.5-17.6,7.1-25.8c10.4-23.9,24.2-45.9,38.7-67.4c3.6-5.3,9.5-5.6,13-0.4
		c16.1,23.9,31.2,48.4,42.1,75.3C115.1,238.5,88,274.7,52.5,274.6z M52.8,146c-0.7,0.5-1,0.5-1.1,0.7c-12.4,19.2-24.4,38.7-32.8,60
		c-2,5-3.8,10.6-3.7,15.9c0.2,15.8,8,27.5,22.5,33.8c14.4,6.2,28.1,4,39.7-6.6c11.5-10.5,15.6-23.6,10.2-38.7
		C79.3,187.8,66,167.1,52.8,146z"/>
	<path d="M227,242.3c-6.5,0.1-10.5-3.9-9.3-9.1c0.9-3.7,3.8-5.7,8.5-5.9c19-0.7,35.3-12.5,41.3-30.4c1.5-4.3,2-9,2.5-13.5
		c0.5-5.3,3.4-8.7,7.9-8.5c4.4,0.2,7.2,3.6,7.2,8.8C284.8,214.7,258.1,241.8,227,242.3z"/>
	<path d="M149.9,175c0,4.1-3.6,7.5-7.7,7.4c-4-0.1-7.2-3.6-7.2-7.6c0-4.1,3.6-7.5,7.7-7.4C146.7,167.6,150,171,149.9,175z"/>
	<path class="st0" d="M135,273.4c11.1,18.9,22.6,36.6,28.8,57c5.4,17.9-9.8,38.4-28.2,38.7c-18.9,0.4-34.7-20.2-29.5-38.7
		c4.1-14.4,11.7-27.3,18.9-40.2C128.1,284.8,131.3,279.5,135,273.4z"/>
	<path class="st0" d="M52.8,146c13.1,21,26.4,41.8,34.8,65.1c5.4,15.1,1.3,28.3-10.2,38.7c-11.6,10.6-25.4,12.8-39.7,6.6
		c-14.5-6.3-22.3-17.9-22.5-33.8c-0.1-5.3,1.7-10.9,3.7-15.9c8.5-21.3,20.5-40.8,32.8-60C51.9,146.6,52.2,146.5,52.8,146z"/>
</g>
</svg>
