<?xml version="1.0" encoding="utf-8"?>
<!-- Generator: Adobe Illustrator 23.0.6, SVG Export Plug-In . SVG Version: 6.00 Build 0)  -->
<svg version="1.1" id="Laag_1" xmlns="http://www.w3.org/2000/svg" xmlns:xlink="http://www.w3.org/1999/xlink" x="0px" y="0px"
	 viewBox="0 0 360 359.8" style="enable-background:new 0 0 360 359.8;" xml:space="preserve">
<g>
	<path d="M247.2,352.2c-0.6-0.1-1.2,0.2-1.7,0.5c-0.3,0-0.5,0-0.7,0.3c-0.7,0-1.4,0-2,0.5c-0.3-0.1-0.5,0-0.7,0.2
		c-0.5-0.1-1,0.1-1.5,0.3c-0.4-0.1-0.7,0.1-0.9,0.4c-0.3-0.1-0.7,0-1,0.1c-0.7-0.1-1.3,0.2-1.9,0.6c-0.4-0.1-0.8-0.1-1.2,0.1
		c-0.7,0-1.3,0.2-1.9,0.6c-0.4-0.1-0.8-0.1-1.2,0.1c-0.8,0-1.4,0.3-2.1,0.6c-0.5-0.1-1-0.1-1.5,0.2c-0.9,0-1.7,0.3-2.6,0.6
		c-0.7-0.1-1.3-0.1-2,0.3c-0.8,0-1.6,0.1-2.4,0.4c-0.6-0.1-1.2-0.1-1.7,0.1c-1.3,0.1-2.5,0.3-3.8,0.6c-0.7-0.1-1.3-0.1-2,0.2
		c-1-0.1-1.9,0-2.8,0.4c-0.3-0.1-0.5-0.1-0.8,0.1c-2.1-0.2-4.1,0.2-6.2,0.2c-0.3,0-0.4,0.1-0.5,0.4c-28.6,0-57.1,0-85.7,0
		c0-0.9-0.7-0.5-1-0.5c-5.5-0.1-11-0.8-16.4-1.5c-2.3-0.3-4.6-0.9-6.9-1.2c-1.7-0.2-3.3-0.7-4.9-1c-1-0.2-2.1-0.3-3.1-0.7
		c-1.2-0.5-2.5-0.6-3.8-1.1c-0.4-0.2-0.8-0.2-1.3,0.1c-2,1.2-4.1,2.1-6.2,2.9c-3.9,1.4-7.9,2.2-12,2.6c-0.3,0-0.9-0.2-0.8,0.5
		c-1.2,0-2.4,0-3.6,0c0-0.9-0.7-0.5-1-0.5c-3.7-0.2-7.3-1-10.7-2.2c-4.3-1.5-8.2-3.7-11.8-6.3c-6.9-5-12.9-10.9-17.9-17.8
		c-2.8-4-5.3-8.2-7.3-12.7c-1.2-2.7-2.3-5.6-3.2-8.4c-1-3.1-1.7-6.2-2.6-9.3c-0.6-2.2-1.2-4.5-1.7-6.8c-0.5-2.4-1.1-4.7-1.6-7.1
		c-0.4-1.8-0.8-3.6-0.8-5.5c0-5.2,0-10.5,0-15.7c0-2,0.5-3.9,0.9-5.9c0.4-2.2,0.9-4.3,1.5-6.5c0.7-2.5,1.5-5,2.4-7.3
		c1.5-3.6,3.2-7.2,5.2-10.6c2-3.4,4.2-6.6,6.7-9.6c3.9-4.7,8.2-8.9,13.1-12.4c0.9-0.7,1.9-1.3,2.9-1.8c0.7-0.4,0.7-0.7,0.3-1.3
		c-2.1-3.2-3.7-6.6-5.1-10.1c-1-2.6-1.8-5.2-2.4-7.9c-1-4.2-1.4-8.4-1.6-12.7c-0.1-3.7,1.1-5.7,4.4-7.1c0.4-0.2,0.8-0.3,1.2-0.3
		c2.6,0,5.2,0,7.8,0.4c2,0.3,3.9,0.5,5.9,1c2.7,0.6,5.3,1.3,7.9,2.3c4.2,1.6,8.2,3.6,12,6.1c4.9,3.2,9.3,7,13,11.6
		c2,2.5,4,5,5.6,7.8c0.1,0.2,0.3,0.5,0.6,0.5c0.3-0.1,0.3-0.4,0.3-0.6c1.6-5.3,3.6-10.4,6.2-15.2c1.1-2.1,1.8-4.2,1.3-6.7
		c-0.6-2.9-0.3-6-0.5-9c-0.6-6.6-0.8-13.3-1.4-19.9c-0.4-5.1-0.3-10.3-1.2-15.4c-0.4-2.4-0.1-4.9-0.3-7.4
		c-0.6-6.6-0.9-13.2-1.4-19.8c-0.4-4.9-0.4-9.8-1.1-14.7c-0.4-3,0-6-0.5-9c-0.4-2.5,0.3-4.7,2.2-6.4c1.4-1.3,3.2-1.7,5-1.7
		c3.8-0.1,7.6-0.1,11.4-0.1c23.2,0,46.3-0.1,69.5-0.1c1.8,0,1.8,0,1.8-1.7c0-9,0.1-18,0-27c0-3.4,1.3-5.8,4.2-7.6
		c5.2-3.2,10.4-6.5,15.5-9.9c5.2-3.4,10.5-6.6,15.7-9.9c8.2-5.2,16.3-10.4,24.5-15.6c2.9-1.9,5.8-3.7,8.7-5.6
		c0.7-0.5,0.9-0.3,1.4,0.3c1.8,2.8,3.6,5.7,5.4,8.5c0.8,1.2,0.7,1.6-0.4,2.4c-7.9,5-15.7,10.1-23.6,15.1c-6.8,4.4-13.7,8.7-20.6,13
		c-5.5,3.5-11.1,7-16.6,10.5c-0.8,0.5-1.1,1.1-1.1,2.2c0.1,7.9,0.1,15.8,0,23.8c0,1.1,0.2,1.4,1.3,1.4c10.8-0.1,21.7-0.2,32.5-0.3
		c2,0,2,0.1,2,2c0,3.1,0,6.2,0,9.2c0,1.6,0,1.6-1.6,1.6c-10.8,0-21.6,0-32.4,0c-1.9,0-1.9,0-1.9,1.9c0,5.8,0,11.6,0,17.4
		c0,4.2,0.1,8.5-0.1,12.7c0,0.5,0.1,1,0.6,1.2c2.3,0.7,4.4,1.6,6.7,2.3c2.4,0.7,4.8,1.2,7.3,1.8c1.8,0.4,3.6,0.7,5.4,0.7
		c4.8,0.2,9.6,0.5,14.5-0.3c2-0.3,4-0.6,6-1c1.4-0.3,2.8-0.6,4.2-1.1c1.6-0.6,3.2-1,4.8-1.6c2.5-0.9,4.9-1.9,7.2-3.2
		c5.7-3.1,11.5-6.3,17.2-9.4c1.1-0.6,1.5-1.2,1.6-2.5c0.3-6,0.7-12,1.1-17.9c0.1-0.9-0.2-1.2-1-1.1c-1,0-2.1,0-3.1,0
		c-0.8,0-1.2-0.2-1.2-1.1c0-3.5-0.1-7-0.1-10.4c0-1.2,0.5-1.6,1.7-1.5c3.3,0.1,6.6,0.1,9.8,0c4.2-0.2,7.8,3.1,7.2,7.4
		c-0.6,4.9-0.4,9.9-1.1,14.8c-0.4,2.5-0.1,5-0.3,7.5c-0.6,6.6-0.8,13.2-1.4,19.7c-0.4,5-0.2,10.2-1.2,15.2c0,0.1,0,0.2,0,0.2
		c0.2,4.7-0.6,9.4-0.8,14.1c-0.3,5.8-0.8,11.6-1.2,17.4c-0.3,5.5-0.9,11.1-1,16.6c0,0.7,0.2,1,0.9,0.9c0.4,0,0.7,0,1.1,0
		c27.3,0,54.6,0,82,0c2.8,0,4.9,1.2,6.4,3.5c0.3,0.5,0.4,0.9,0.4,1.3c0,5,0.1,10-0.2,15c-0.1,2.3-0.3,4.7-0.8,7
		c-0.4,2.3-0.6,4.7-1,7.1c-0.6,2.9-1,5.8-1.7,8.7c-0.6,2.3-1,4.7-1.7,6.9c-0.6,2.1-1.1,4.3-1.9,6.4c-0.8,2.2-1.5,4.4-2.2,6.5
		c-1.3,3.7-2.8,7.3-4.4,10.9c-1.7,3.7-3.5,7.4-5.5,11c-2.9,5.3-6.1,10.4-9.6,15.3c-5.2,7.5-11,14.4-17.4,20.9
		c-5.5,5.6-11.4,10.7-17.6,15.5c-5,3.8-10.1,7.2-15.5,10.4c-4.4,2.6-8.9,5-13.5,7.1c-3.5,1.6-7.1,3.3-10.7,4.5
		c-2.2,0.8-4.4,1.7-6.7,2.5c-0.6,0.2-1.4,0-1.9,0.5C247.5,352,247.3,352,247.2,352.2z M91.4,222.6c2.3-1.9,4.4-3.6,6.4-5.3
		c5.5-4.6,11.8-7.2,19-7.9c3.7-0.4,7.4,0.2,11,1.1c3.8,0.9,7.2,2.5,10.3,4.8c5.9,4.3,11,9.5,15.4,15.4c3.8,5.1,6.9,10.6,9.3,16.5
		c1.1,2.8,2.1,5.7,2.9,8.6c0.8,3,1.5,6.1,1.9,9.2c0,0.3-0.1,0.6,0.2,0.7c0.3,0.1,0.5-0.2,0.7-0.4c7.1-6.1,13.7-12.8,19.6-20.1
		c4.2-5.2,8.1-10.6,11.7-16.3c2.9-4.7,5.5-9.5,8-14.4c1.6-3.4,3.1-6.8,4.5-10.2c1.1-2.8,2.2-5.7,3.2-8.6c0.8-2.6,1.6-5.3,2.4-7.9
		c0.7-2.1,1.1-4.3,1.6-6.5c0.8-2.8,1.3-5.7,1.8-8.5c0.5-2.4,1.1-4.7,2.4-6.7c4.4-6.8,12.1-10.3,20.4-7.6c1.2,0.4,2.4,0.9,3.5,1.4
		c3.2,1.4,6.6,2.5,9.6,4.4c0.7,0.5,1,0.3,1.1-0.6c0.3-2.2,0.1-4.3,0.3-6.5c0.6-6.5,1-13,1.3-19.5c0.2-3.6,0.8-7.1,0.8-10.8
		c0-0.8,0-1.1-1-0.6c-3.8,2.1-7.5,4.2-11.3,6.2c-4.1,2.1-8.5,3.9-12.9,5.3c-3.4,1.1-6.9,1.8-10.5,2.4c-4.2,0.6-8.4,1-12.6,1.1
		c-2.4,0.1-4.7-0.4-7-0.5c-3.6-0.1-7.1-0.9-10.6-1.7c-2.8-0.6-5.6-1.5-8.3-2.5c-4-1.4-7.8-3.4-11.9-4.7c-1.9-0.6-3.8-1.3-5.7-1.7
		c-1.8-0.4-3.7-0.7-5.5-1.1c-3.2-0.6-6.4-0.6-9.7-0.8c-2.6-0.1-5.2,0.3-7.8,0.4c-2,0.1-4,0.5-5.9,0.9c-3,0.6-6,1.5-8.9,2.5
		c-3.5,1.2-6.9,2.8-10.1,4.5c-5.8,3.2-11.5,6.4-17.3,9.6c-3.2,1.8-3.3,2-2.9,5.5c0.7,6.3,1,12.7,1.3,19c0,0.8,0.3,1.3,0.9,1.8
		c2,1.5,4,3.2,6.1,4.6c0.8,0.5,0.8,0.9,0.3,1.6c-1.3,1.8-2.6,3.5-3.8,5.3c-2.9,4.3-5.4,8.8-7.5,13.6c-1.5,3.3-2.7,6.8-3.7,10.3
		c-0.6,2.2-1.2,4.4-1.7,6.6C92.1,217.2,91.6,219.7,91.4,222.6z M254.2,196.4C254.2,196.4,254.2,196.4,254.2,196.4
		c0-4.9,0.1-9.8,0-14.6c-0.1-3.3-1.4-5.9-4.5-7.3c-3-1.3-6.1-2.4-9-3.8c-3.2-1.5-6.5,0.8-7,4.1c-0.4,2.8-0.9,5.5-1.6,8.2
		c-0.8,3.2-1.6,6.4-2.5,9.6c-1,3.3-2,6.6-3.1,9.9c-1.8,5.1-3.9,10.1-6.2,15c-2.4,5.1-5,10.1-7.9,15c-3.4,5.6-7.1,11.1-11.1,16.3
		c-5,6.5-10.4,12.7-16.2,18.4c-5.3,5.2-10.9,10.1-16.9,14.5c-6.8,5.1-13.9,9.7-21.4,13.8c-3.8,2-7.6,3.9-11.5,5.7
		c-3.1,1.4-6.3,2.7-9.4,3.9c-2.9,1.1-5.9,2.1-8.9,3.1c-2.8,0.9-5.6,1.8-8.5,2.5c-3.5,0.9-7.1,1.7-10.7,2.4c-4,0.7-8.1,1.5-12.1,1.9
		c-5.6,0.6-11.1,1.1-16.7,1.4c-3.5,0.2-7.1,0.7-10.6,0.8c-0.9,0-1.2,0.3-1.2,1.3c0,3.4,0,6.9,0,10.3c0,0.6,0.1,1,0.8,1.3
		c4.4,2.3,8.9,4.5,13.6,6.4c5.1,2.1,10.3,3.9,15.7,5.3c3.6,1,7.3,1.7,10.9,2.4c4.2,0.9,8.4,1.4,12.7,1.8c6.9,0.5,13.9,0.8,20.8,0.2
		c1.7-0.1,3.4-0.1,5.1-0.4c2.3-0.5,4.7-0.6,7.1-1c3-0.5,5.9-1,8.8-1.7c3-0.8,6-1.6,9-2.5c3-1,6-2,8.9-3.1c3.5-1.4,6.9-2.9,10.2-4.6
		c4.5-2.3,8.8-4.8,13-7.5c5.2-3.4,10.1-7.2,14.6-11.4c5.5-5,10.6-10.3,15.1-16.2c3.4-4.4,6.5-9,9.4-13.8c2.5-4.2,4.8-8.5,6.9-12.9
		c1.6-3.3,3-6.7,4.3-10.1c1.2-3,2.3-6.1,3.2-9.2c0.9-2.9,1.7-5.8,2.4-8.7c0.6-2.5,1.3-5.1,1.7-7.7c0.6-3.7,1.3-7.5,1.7-11.2
		c0.6-5.1,0.9-10.3,1.1-15.4C254.3,204.7,254.2,200.5,254.2,196.4z M61.3,346.5c0-0.4-0.2-0.5-0.4-0.6c-4.1-2-8.1-4-12.1-6.2
		c-3.1-1.7-4.8-4.1-4.7-7.8c0.1-6.3,0.1-12.6,0-19c0-1.3,0.1-2.6,0.6-3.8c0.7-1.8,2.1-3.2,3.9-3.7c2.1-0.6,4.4-0.8,6.6-0.8
		c4.2,0,8.3-0.5,12.4-0.9c4.2-0.4,8.5-0.4,12.8-1c3.3-0.5,6.6-0.8,9.9-1.3c1.6-0.3,3.3-0.6,4.9-0.9c1.7-0.3,3.4-0.6,5-1
		c2.2-0.6,4.4-1.2,6.5-1.7c2-0.5,4.1-1.1,6-1.7c3.6-1.2,7.2-2.5,10.7-3.9c4.5-1.8,8.9-3.8,13.2-6c5.8-2.9,11.3-6.3,16.7-9.9
		c1.3-0.8,1.9-1.7,1.7-3.3c-0.2-3.5-0.4-7-1.1-10.3c-0.9-4.1-2.2-8.2-3.9-12.1c-1.9-4.4-4.3-8.6-7.2-12.5c-2.9-4-6.3-7.4-10-10.6
		c-1.7-1.5-3.6-2.8-5.7-3.7c-3-1.3-6.1-1.6-9.3-1.6c-3.9,0-7.4,1.2-10.5,3.4c-4.1,2.9-7.8,6.2-11.5,9.5c-3.7,3.3-8,5-12.7,5.3
		c-4.2,0.2-8.4-0.6-12.6-1.5c-4.5-1-8.9-2.6-13.1-4.6c-5.4-2.6-10.2-6-14.6-10c-0.9-0.8-1.7-0.8-2.6-0.5c-0.7,0.2-1.3,0.6-1.9,1
		c-4.7,2.7-8.3,6.6-11.9,10.7c-3.3,3.8-6,8.1-8.2,12.6c-1.5,2.9-2.7,6-3.6,9.1c-0.7,2.4-1.3,4.8-1.7,7.3c-0.6,3.6-0.8,7.2-1,10.8
		c-0.1,2.3,0.3,4.5,0.4,6.8c0.2,4.2,1.3,8.2,2.4,12.2c0.6,2.3,1.2,4.5,1.8,6.8c0.9,3.2,1.6,6.4,2.7,9.5c2,5.7,4.8,11,8.3,15.9
		c3.6,5.1,8,9.4,13,13.2c2.5,1.9,5.2,3.6,8.2,4.8c1.9,0.7,3.9,1.3,5.9,1.7C57.2,346.5,59.3,346.4,61.3,346.5z M216.6,323.8
		c0.6,0.2,1,0.1,1.4,0c2.4-0.3,4.7-0.9,7-1.3c3.3-0.6,6.5-1.5,9.7-2.4c3.8-1.1,7.5-2.5,11.2-4c5-2,9.9-4.4,14.6-7
		c5.2-2.9,10.1-6.1,14.8-9.7c7.7-5.8,14.6-12.4,20.8-19.8c3.7-4.4,7-9,10.1-13.8c2.9-4.5,5.4-9.2,7.7-14c1.4-3,2.7-6,3.8-9.1
		c0.8-2.2,1.6-4.4,2.3-6.6c0.7-2,1.3-4.1,1.8-6.2c0.6-2.4,1.2-4.9,1.7-7.3c0.7-3.5,1.2-7.1,1.7-10.6c0.3-2.4,0.3-4.8,0.7-7.1
		c0.1-0.8-0.2-1.1-1-1c-1.6,0-3.2,0-4.8,0c-17.3,0-34.6,0-52,0c-1.1,0-1.4,0.3-1.4,1.4c0.1,3,0.1,6.1,0,9.1c-0.1,2.3-0.2,4.7-0.5,7
		c-0.3,2.4-0.6,4.9-0.8,7.4c-0.2,2.4-0.7,4.7-1.1,7c-0.5,2.8-1.1,5.5-1.7,8.3c-0.7,3.1-1.5,6.2-2.4,9.2c-0.9,3.2-2.1,6.4-3.2,9.5
		c-1.8,4.9-3.8,9.7-6,14.4c-3.3,6.9-7,13.6-11.3,19.9c-5.4,8.1-11.5,15.5-18.4,22.3C219.8,320.7,218.3,322.2,216.6,323.8z
		 M173.6,104.5C173.6,104.5,173.6,104.5,173.6,104.5c-0.1-4.4-0.1-8.8,0-13.2c0-0.9-0.3-1.2-1.2-1.2c-2.1,0.1-4.2,0.1-6.3,0.1
		c-9.2,0.2-18.5,0.1-27.7,0.2c-8.3,0.2-16.6,0.1-24.9,0.1c-5.1,0-10.2,0.1-15.3,0.1c-0.5,0-1.3-0.1-1.1,0.8c0.3,2.2,0,4.5,0.3,6.7
		c0.7,5.4,0.8,10.9,1.2,16.4c0.5,6.1,0.9,12.3,1.2,18.4c0,0.8,0.2,1,1,0.6c4.2-2.4,8.4-4.7,12.6-7c4-2.2,8-4.3,12.3-5.8
		c3.5-1.3,7-2.3,10.6-3.1c4.3-1,8.7-1.6,13.1-1.8c4.1-0.2,8.2-0.1,12.3,0.4c3.8,0.5,7.5,1.1,11.1,2.1c0.6,0.2,0.9,0.2,0.9-0.6
		C173.6,113.3,173.6,108.9,173.6,104.5z M181.3,346.7c0,0.1,0,0.2,0,0.3c0.4,0,0.8,0,1.2,0c10.4,0,20.9,0.3,31.3-0.8
		c2.2-0.2,4.5-0.4,6.6-0.8c3.2-0.6,6.4-1,9.5-1.8c2.4-0.6,4.8-1.1,7.2-1.7c2.7-0.8,5.5-1.6,8.2-2.5c2.9-1,5.9-2,8.7-3.2
		c5.4-2.2,10.7-4.7,15.8-7.5c5.5-3,10.9-6.4,15.9-10.1c6.6-4.9,12.9-10.2,18.7-16.1c6.3-6.4,12-13.3,17.1-20.8
		c3.5-5.1,6.6-10.4,9.5-15.9c1.9-3.8,3.7-7.6,5.3-11.5c1.1-2.8,2.1-5.6,3.1-8.4c0.9-2.6,1.7-5.1,2.5-7.7c0.6-2.1,1.1-4.1,1.6-6.2
		c0.7-3,1.3-6.1,1.8-9.1c0.3-1.8,0.7-3.7,0.9-5.5c0.4-4.1,0.9-8.3,1-12.4c0-1-0.3-1.2-1.1-1.2c-2.2,0-4.5,0-6.7,0
		c-1,0-1.2,0.4-1.2,1.3c0,1.6,0,3.1-0.2,4.7c-0.6,4.5-1,9-1.9,13.5c-0.7,3.4-1.4,6.9-2.3,10.3c-0.9,3.5-2,6.9-3.2,10.4
		c-1.4,3.9-2.8,7.7-4.5,11.4c-2.7,6-5.8,11.7-9.3,17.2c-5.4,8.6-11.7,16.4-18.8,23.7c-4,4.1-8.3,8-12.8,11.5
		c-4.3,3.4-8.9,6.6-13.6,9.5c-4.4,2.7-8.9,5.2-13.6,7.4c-3.5,1.7-7.1,3.2-10.8,4.5c-1.6,0.6-3.3,1-4.9,1.7c-2.5,1-5.1,1.7-7.7,2.4
		c-2.2,0.7-4.6,1.1-6.8,1.6c-3,0.7-6.1,1.3-9.1,1.7c-3,0.4-6.1,0.8-9.2,1c-3.5,0.2-6.9,0.6-10.4,0.5c-1,0-1.9-0.1-2.8,0.5
		c-3.6,2.2-7.2,4.3-11.1,6.1C183.9,345.3,182.7,346,181.3,346.7z M37.4,188c0,0.2,0,0.4,0,0.6c0.6,2.8,1.3,5.7,2.3,8.4
		c2.2,5.8,5.4,11.1,9.7,15.6c4,4.2,8.5,7.6,13.6,10.1c3.5,1.7,7.2,2.9,11,3.9c0.9,0.2,2.1,0.5,2.8,0.1c0.7-0.5-0.3-1.5-0.3-2.3
		c0-0.1,0-0.2,0-0.2c-0.9-5-2.8-9.6-5.3-14c-3.1-5.5-7.3-10.1-12.3-13.9c-4-3-8.4-5.3-13.1-7c-2.5-0.9-5.1-1.5-7.7-2
		C37.5,187.2,37.3,187.4,37.4,188z"/>
	<path d="M240,90c-1.7,0-3.4,0-5,0c-0.9,0-1.2-0.3-1.2-1.2c0-3.4-0.1-6.8-0.2-10.2c0-1.1,0.4-1.6,1.6-1.6c3.3,0,6.5,0.2,9.8-0.1
		c0.9-0.1,1.4,0.3,1.4,1.2c0,3.6,0,7.1,0,10.7c0,0.7-0.4,1.2-1.2,1.1C243.5,90,241.7,90,240,90C240,90,240,90,240,90z"/>
	<path d="M275.5,221.2c0-1.6,0-3.2,0-4.8c0-1,0.4-1.6,1.5-1.5c3.4,0,6.7,0,10.1,0c1,0,1.4,0.4,1.4,1.4c0,3.4,0,6.8,0,10.2
		c0,1-0.4,1.4-1.4,1.4c-3.4,0-6.7,0-10.1,0c-1.1,0-1.5-0.5-1.5-1.5C275.6,224.6,275.5,222.9,275.5,221.2z"/>
	<path d="M282.1,263.7c-1.7,0-3.4,0-5.1,0c-1,0-1.4-0.4-1.4-1.4c0-3.3,0-6.6,0-9.9c0-1,0.4-1.5,1.4-1.4c3.4,0,6.8,0,10.2,0
		c0.9,0,1.3,0.4,1.3,1.3c0,3.4,0,6.8,0,10.2c0,0.9-0.4,1.3-1.3,1.3C285.5,263.7,283.8,263.7,282.1,263.7
		C282.1,263.7,282.1,263.7,282.1,263.7z"/>
	<path d="M257.7,281.3c0-1.7,0-3.4,0-5c0-0.9,0.3-1.3,1.2-1.3c3.4,0,6.7,0,10.1,0c0.9,0,1.2,0.3,1.2,1.2c0,3.4,0,6.9,0,10.3
		c0,0.9-0.3,1.2-1.2,1.2c-3.4,0-6.7,0-10.1,0c-0.9,0-1.3-0.3-1.3-1.3C257.8,284.8,257.7,283,257.7,281.3z"/>
</g>
</svg>
