<?xml version="1.0" encoding="utf-8"?>
<!-- Generator: Adobe Illustrator 23.0.6, SVG Export Plug-In . SVG Version: 6.00 Build 0)  -->
<svg version="1.1" id="Laag_1" xmlns="http://www.w3.org/2000/svg" xmlns:xlink="http://www.w3.org/1999/xlink" x="0px" y="0px"
	 viewBox="0 0 384.2 384.2" style="enable-background:new 0 0 384.2 384.2;" xml:space="preserve">
<g>
	<path d="M286.5,384.2c-63,0-126,0-189,0c-1-0.2-1.9-0.6-2.9-0.7c-41.9-4.2-78.5-34.6-90.1-74.9C2.5,301.4,1.5,294,0,286.7
		c0-63,0-126,0-189c0.2-1.1,0.6-2.2,0.7-3.2C6.3,41.8,51.2,0.6,104.1,0.3c58.4-0.3,116.7-0.3,175.1,0
		c57.5,0.3,104.3,47.1,104.7,104.7c0.4,58.1,0.3,116.2,0,174.3c-0.2,46.6-31.2,87.3-75.9,100.4C301,381.7,293.7,382.7,286.5,384.2z
		 M34,192.2c0,27.9-0.2,55.7,0.1,83.6c0.1,6.9,0.7,14.1,2.5,20.7c8.5,32.5,36.8,53.6,71.7,53.6c55.7,0.1,111.5,0.1,167.2-0.1
		c5.8,0,11.8-0.5,17.5-1.7c33.9-7.4,56.8-35.9,56.9-70.9c0.2-56.9,0.1-113.7,0-170.6c0-5.2-0.5-10.5-1.6-15.6
		c-7.6-34.4-36.2-57-72.4-57c-55.9-0.1-111.7-0.1-167.6,0.1c-6.8,0-13.8,0.7-20.4,2.4C55.7,44.9,34.2,73.3,34,107.4
		C33.9,135.7,34,163.9,34,192.2z"/>
	<path d="M291,192c0.1,54.5-44.4,99.1-98.9,99.1c-54.5,0-99-44.5-99-99c0-54.4,44.3-98.8,98.7-98.9C246.3,93,290.9,137.5,291,192z
		 M256.8,192c-0.2-35.9-29.2-64.8-65-64.6c-35.8,0.1-64.8,29.3-64.7,65c0.2,35.8,29.3,64.8,65,64.6C228.1,256.8,257,227.7,256.8,192
		z"/>
	<path d="M294.9,114.2c-13.8-0.1-25-11.5-24.8-25.2c0.2-13.6,11.4-24.6,25-24.6c13.8,0,25.1,11.3,25,25
		C320,103.2,308.8,114.3,294.9,114.2z"/>
</g>
</svg>
