<?xml version="1.0" encoding="utf-8"?>
<!-- Generator: Adobe Illustrator 23.0.6, SVG Export Plug-In . SVG Version: 6.00 Build 0)  -->
<svg version="1.1" id="Laag_1" xmlns="http://www.w3.org/2000/svg" xmlns:xlink="http://www.w3.org/1999/xlink" x="0px" y="0px"
	 viewBox="0 0 373.6 384" style="enable-background:new 0 0 373.6 384;" xml:space="preserve">
<g>
	<path d="M24.7,384c-4.3-1.9-9-3.2-12.9-5.7C4.1,373,0.5,365.2,0,356c0-0.7,0-1.5,0-2.2c0-99.6,0-199.2,0-298.9
		c0-15.3,9.1-26.9,23.4-29.7c3.6-0.7,7.5-0.5,11.2-0.5c6.8-0.1,13.7,0,21.1,0c0-5,0-9.7,0-14.4c0-1.6,0-3.3,0.4-4.8
		C56.9,2,60-0.2,63.3,0c3.4,0.2,6.3,2.6,6.5,6.1c0.3,4.2,0.2,8.5,0.2,12.7c0,1.7,0,3.5,0,5.5c13.9,0,27.4,0,41.4,0
		c0-5.8-0.1-11.6,0-17.3c0.1-3.6,2.4-6.3,5.7-6.9c3.3-0.6,6,0.7,7.5,3.6c0.8,1.5,1,3.4,1,5.1c0.1,5.1,0,10.2,0,15.5
		c12,0,23.7,0,36,0c0-5.7-0.1-11.2,0-16.8c0.1-4.2,2.6-7.1,6.4-7.5c4.3-0.5,7.8,2.8,7.9,7.5c0.1,5.5,0,11,0,16.7
		c13.2,0,26.1,0,39.6,0c0-5.1-0.1-10.2,0-15.3c0-1.7,0.2-3.5,0.8-5.1c1.2-3,4.7-4.5,7.8-3.8c3.3,0.8,5.6,3.5,5.7,7.4
		c0.1,5.5,0,11,0,17c2.8,0,5.4,0,8,0c7.7,0,15.5-0.1,23.2,0.1c15.4,0.4,27.5,12.3,28,27.7c0.3,9,0.1,18,0,27c0,1.1-0.5,2.5-1.2,3.3
		c-6.5,6.6-13,13.1-20.3,20.4c0-2,0-3.1,0-4.3c0-14.6,0-29.2,0-43.9c0-6.2-2.5-8.7-8.6-8.7c-9.5-0.1-19,0-29.1,0
		c0,3.9,0.1,7.6,0,11.3c-0.2,3.9-2.6,6.6-6,7c-3.5,0.5-6.2-0.9-7.6-4.1c-0.6-1.3-0.6-2.9-0.6-4.4c-0.1-2.9-0.1-5.7-0.1-8.6
		c0-0.2-0.2-0.4-0.4-0.9c-12.8,0-25.7,0-39,0c0,3.2,0,6.3,0,9.4c0,5.5-2.6,8.7-7.1,8.7c-4.5,0.1-7.2-3-7.2-8.5c0-3.1,0-6.2,0-9.6
		c-12,0-23.7,0-36,0c0,3.6,0.1,7.3,0,11c-0.2,3.9-2.7,6.6-6.1,7c-3.5,0.4-6.2-1-7.6-4.2c-0.6-1.4-0.6-3.2-0.6-4.8
		c-0.1-3,0-5.9,0-9.1c-13.9,0-27.3,0-41.4,0c0,3.2,0,6.4,0,9.6c-0.1,5.5-2.7,8.6-7.2,8.6c-4.5,0-7.1-3.2-7.2-8.7c0-3.1,0-6.2,0-9.5
		c-9.7,0-19.1-0.2-28.4,0.1c-3.2,0.1-5,2.6-5.5,5.7c-0.2,1.3-0.1,2.7-0.1,4.1c0,98.6,0,197.2,0,295.9c0,0.5,0,1,0,1.5
		c0.1,6.2,2.5,8.7,8.6,8.7c20.9,0,41.7,0,62.6,0.1c2.1,0,4.4,0.7,6.3,1.7c5.9,3.2,12.1,4.4,18.4,2c9.1-3.5,18.4-3.9,27.9-3.9
		c37.4,0.2,74.7,0.1,112.1,0.1c8.2,0,10.2-2,10.2-10.1c0-25.5,0-51-0.1-76.5c0-2.6,0.8-4.4,2.6-6.2c6.2-6,12.2-12.1,19.1-19
		c0,2.3,0,3.6,0,4.9c0,32.6,0,65.2,0,97.9c0,15.9-8.2,26.3-23.7,30.2c-0.3,0.1-0.7,0.3-1,0.5C184.7,384,104.7,384,24.7,384z"/>
	<path d="M161,236c-2.5,0-4,0-5.5,0c-27.1,0-54.2,0-81.3,0c-1.4,0-2.8,0-4.1-0.2c-3.6-0.6-5.8-3.4-5.6-6.8c0.2-3.2,2.6-5.8,6-6.2
		c1.2-0.1,2.5-0.1,3.7-0.1c32.2,0,64.5,0,96.7,0.1c2.6,0,4.4-0.8,6.2-2.6c32.1-32.2,64.3-64.4,96.4-96.5c1-1,1.7-2.1,2.3-2.8
		c20.1,20.1,39.9,39.8,59.8,59.8c-0.4,0.4-1.2,1.4-2.2,2.4C287.5,229,241.6,275,195.6,320.8c-2.4,2.4-5.6,4.3-8.8,5.4
		c-23.6,7.7-47.3,15.1-70.9,22.7c-2.6,0.8-5.6,1.8-7.2-0.8c-1.1-1.8-1.3-4.8-0.6-6.9c7.4-23.8,14.9-47.6,22.7-71.3
		c1-3.1,3-6.1,5.2-8.4c7.1-7.5,14.6-14.7,21.9-22.1C158.7,238.5,159.5,237.6,161,236z M161.1,264.1c0.9-0.7,2.8-1.8,4.3-3.3
		c35.7-35.6,71.4-71.3,107.1-107c1-1,2-1.9,2.7-3.1c1.5-2.4,1.2-4.8-0.9-6.8c-2-1.8-4.3-2-6.5-0.5c-1,0.7-1.9,1.6-2.8,2.5
		c-35.7,35.7-71.4,71.4-107,107c-1,1-2,1.9-2.7,3.1C153,259.7,155.6,264.1,161.1,264.1z M174.7,318.1c-12-12-24-24-35.9-35.9
		c-2.8,8.7-5.8,18-8.6,27.3c-0.4,1.2,0.1,3.2,1,4.2c3.9,4.2,8,8.3,12.2,12.2c0.9,0.8,2.7,1.3,3.8,1C156.5,324,165.7,321,174.7,318.1
		z"/>
	<path d="M346.3,169.5c-19.6-19.7-39.3-39.4-58.1-58.3c7.5-8,14.7-16.8,22.9-24.2c6.7-6,14.7-4.7,21.1,1.7c12,12,24,24,36,36
		c6.6,6.7,7.3,15.4,0.8,22.4C361.9,154.9,354,162,346.3,169.5z"/>
	<path d="M141.3,177c-22.5,0-45,0-67.5,0c-1.2,0-2.5,0.1-3.7-0.1c-3.3-0.5-5.7-3.3-5.6-6.5c0.1-3.4,1.9-5.6,5.3-6.3
		c1.5-0.3,3-0.3,4.5-0.3c44.7,0,89.5,0,134.2,0c1.4,0,2.8,0,4.1,0.2c3.4,0.5,5.6,3.2,5.6,6.4c0,3.4-2.5,6.1-6.1,6.5
		c-1.2,0.1-2.5,0.1-3.7,0.1C186,177,163.7,177,141.3,177z"/>
	<path d="M141.3,123.8c-22.5,0-45,0-67.5,0c-1.4,0-2.8,0.1-4.1-0.2c-3.1-0.5-5.2-3.3-5.2-6.4c0-3.2,2.1-5.8,5.3-6.3
		c1.5-0.2,3-0.2,4.5-0.2c44.7,0,89.5,0,134.2,0c1.4,0,2.8,0,4.1,0.1c3.3,0.4,5.6,3.2,5.6,6.4c0,3.2-2.4,6-5.7,6.4
		c-1.4,0.2-2.7,0.1-4.1,0.1C186,123.8,163.7,123.8,141.3,123.8z"/>
</g>
</svg>
