<?xml version="1.0" encoding="utf-8"?>
<!-- Generator: Adobe Illustrator 23.0.6, SVG Export Plug-In . SVG Version: 6.00 Build 0)  -->
<svg version="1.1" id="Laag_1" xmlns="http://www.w3.org/2000/svg" xmlns:xlink="http://www.w3.org/1999/xlink" x="0px" y="0px"
	 viewBox="0 0 375.6 384" style="enable-background:new 0 0 375.6 384;" xml:space="preserve">
<path d="M336.1,385.3c-98.5,0-197,0-295.5,0c-0.3-0.2-0.7-0.4-1-0.5C19.3,382.3,0,363.7,0.5,336.5c0.7-37.7,0.2-75.5,0.2-113.2
	c0-58.5,0-117,0-175.5c0-24.3,16.1-42.7,40-46.2c2.3-0.3,4.7-0.3,7.1-0.3c93.7,0,187.5,0,281.2,0c8.4,0,16.4,1.5,23.7,5.8
	c15.8,9.3,23.4,23.2,23.4,41.5c0,95.9,0,191.7,0,287.6c0,1.6,0,3.3,0,4.9c-0.6,19.8-13.7,36.9-32.7,42.4
	C341,384.2,338.5,384.7,336.1,385.3z M348.1,193.8c0-45.6,0-91.2,0-136.9c0-16.9-10.2-27.1-27-27.1c-88.6,0-177.2,0-265.9,0
	C38.2,29.8,28,40,28,57.2c0,90.9,0,181.7,0,272.6c0,17.4,10.1,27.5,27.5,27.5c88.4,0,176.7,0,265.1,0c17.4,0,27.5-10,27.5-27.4
	C348.1,284.6,348.1,239.2,348.1,193.8z"/>
<path d="M45.6,193.2c0-45.1,0-90.2,0-135.3c0-8.6,2.1-10.7,10.6-10.7c88,0,176,0,263.9,0c8.4,0,10.6,2.3,10.6,10.7
	c0,90.4,0,180.7,0,271.1c0,8.8-2,10.8-10.8,10.8c-87.7,0-175.5,0-263.2,0c-0.9,0-1.8,0-2.6,0c-5.9-0.2-8.4-2.6-8.4-8.6
	c-0.1-15.4,0-30.7,0-46.1C45.6,254.5,45.6,223.9,45.6,193.2z M165.2,228.1c13.6,1.1,26.8,1.1,40-1c11.4-1.9,22.4-5.1,32.4-11
	c24.6-14.5,33.7-37.1,32-64.3c-1.6-25.9-14.8-44.5-39.3-53.8c-8.7-3.3-18.3-5.5-27.6-6.4c-27-2.5-53.9-1-80.7,2.5
	c-3.5,0.5-4.1,1.8-4.1,4.9c0.1,66.8,0.1,133.7,0.1,200.5c0,1.3,0,2.7,0,4c16,0,31.4,0,47.2,0C165.2,278.3,165.2,253.2,165.2,228.1z"
	/>
<path d="M165.2,191.3c0-21.4,0-42,0-62.9c8.8-2,17.7-2.3,26.6-1.5c2.3,0.2,4.7,0.6,7,1.2c12.5,3.2,20.8,10.5,23,23.6
	c2.4,13.7-2.9,27.1-14,33.5c-5.1,2.9-11,5.2-16.7,5.9C182.8,192,174.1,191.3,165.2,191.3z"/>
</svg>
