<?xml version="1.0" encoding="utf-8"?>
<!-- Generator: Adobe Illustrator 23.0.6, SVG Export Plug-In . SVG Version: 6.00 Build 0)  -->
<svg version="1.1" id="Laag_1" xmlns="http://www.w3.org/2000/svg" xmlns:xlink="http://www.w3.org/1999/xlink" x="0px" y="0px"
	 viewBox="0 0 384 376.5" style="enable-background:new 0 0 384 376.5;" xml:space="preserve">
<g>
	<path d="M0,229.5c1.7-2.5,3.9-3.7,7.1-4c8.6-0.8,15.2-5,20.4-12.3c-1.4-0.4-2.5-0.6-3.5-1c-3.4-1.2-6.9-2.2-10.1-3.8
		c-9.6-4.9-12.1-13.2-6.9-21.7c5.7-9.2,15.5-11.4,24.1-5.1c6.7,4.9,9.9,11.7,10.8,19.8c0.1,0.9,0.2,1.7,0.4,2.6c0,0,0.2,0.1,0.9,0.2
		c0.3-1,0.7-2,0.9-3.1c5.8-33.1,23.4-58.1,52.2-75.4c3.7-2.2,7.1-1.7,8.8,1.3c1.8,3,0.7,6-3.2,8.3c-19.1,11.5-33.8,27-41.4,48.2
		c-11,30.9-10.4,61.6,4.5,91.3c8.7,17.4,22.3,30.3,39.2,39.6c5.5,3,8.2,6.9,9.1,13c1.8,11.5,4.4,22.8,6.5,34.2
		c0.5,2.8,1.7,3.8,4.5,3.8c7.6-0.1,15.3-0.1,22.9,0c3,0.1,4.2-1.2,4.7-4c1-6.2,2.3-12.3,3.4-18.4c1.3-7.2,4.4-9.8,11.6-9.1
		c19.6,1.9,39.2,1.5,58.7-1.3c5.6-0.8,9.4,2.3,10.5,8.2c1.3,6.7,2.7,13.5,3.8,20.2c0.5,3.2,1.7,4.5,5.1,4.4c7.4-0.2,14.8-0.2,22.1,0
		c3.4,0.1,4.6-1.4,5.1-4.5c2.4-13.1,5-26.2,7.4-39.4c0.7-3.8,2.6-6.3,5.9-8.1c18.9-10,34.7-23.4,45.7-42.1c2.4-4.1,6.1-6.5,10.6-7.9
		c7.4-2.3,14.8-4.7,22.1-7c6.8-2.2,8.9-5,8.9-12c0-7.7,0-15.5,0-23.2c0-5.7-2.2-8.8-7.6-10.6c-4.5-1.5-9-3-13.5-4.4
		c-6.8-2-11.1-6.4-13.3-13.1c-3.2-10.1-8.2-19.3-14.7-27.6c-0.7-0.9-1.6-1.8-2.6-3.1c-0.7,1.5-1.2,2.6-1.7,3.7
		c-5.2,13.4-15.5,18.9-29.4,18.8c-25.6-0.1-44.2-18.2-44.6-43.7c-0.1-6.7,0.7-13.4,1.2-20.7c-2.5-0.6-5.5-1.4-8.5-1.9
		c-0.7-0.1-1.8,0.4-2.1,0.9c-5.8,8.4-13.1,15.3-22.2,21.3c3.4,1.1,6.2,1.9,9,2.9c4,1.4,5.5,4,4.5,7.3c-1,3.2-4,4.6-8,3.3
		c-16-5.2-32.3-7.6-49.1-7.3c-14.5,0.3-28.6,2.6-42.4,6.9c-1.7,0.5-4,1.2-5.4,0.5c-1.7-0.9-3.8-3.1-3.8-4.7c0-1.9,1.7-4.5,3.4-5.4
		c2.8-1.6,6.3-2.2,9.9-3.3c-1.1-0.9-1.8-1.5-2.5-2c-25.7-18.1-37.9-49.2-31-79.3c7-30.8,31.6-53.8,62.8-58.8
		c31.3-5,63.3,10.8,78.6,38.8c2.6,4.7,2.2,8-1.2,9.7c-3.2,1.7-5.9,0.3-8.5-4.2c-13.3-22.8-33.2-34.4-59.6-33.9
		c-30,0.5-56.2,23.4-61.6,53.3c-5.5,30.1,11.2,60.7,39.2,71.7c1.8,0.7,3.9,0.8,5.8,0.6c12.7-1.5,25.4-1.5,38.1,0
		c2.2,0.3,4.8-0.1,6.8-1c23.4-10.9,36.4-29.1,38.9-54.8c0.3-3.1,0.9-6.1,4.5-6.9c3.8-0.9,6.8,1.7,6.7,5.9c-0.2,8.7-2.3,17-5.5,25.1
		c-0.3,0.8-0.6,1.6-1.1,2.8c5.5,0.8,10,3.5,16.1,0.4c14.3-7.1,29.1-13.2,44.9-16.5c1.2-0.3,2.5-0.4,3.7-0.6
		c12.3-1.6,17.8,2.5,19.7,15.1c2.1,13.5,0.7,26.9-1.7,40.3c-0.3,1.5,0.2,3.8,1.3,4.9c10,11.1,17.7,23.5,22.3,37.8
		c1.1,3.3,3,5.3,6.3,6.3c4.8,1.4,9.5,2.9,14.3,4.6c9,3.1,14.5,10.6,14.6,20.1c0.1,8.6,0.1,17.2,0,25.9c-0.1,9.5-5.5,17-14.6,20.1
		c-7.9,2.7-16,5-23.8,7.8c-2.1,0.7-4.3,2.3-5.4,4.1c-11.5,18.9-27.4,32.9-46.6,43.5c-2.2,1.2-3.2,2.6-3.7,5.1
		c-2.2,12.5-4.6,25-7.1,37.5c-1.5,7.9-6.6,12.1-14.7,12.1c-8.1,0.1-16.2,0.1-24.4,0c-7.7-0.1-12.7-4.1-14.4-11.6
		c-0.8-3.4-1.4-6.9-2-10.3c-0.7-3.4-1.3-6.8-1.8-9.4c-19.9,0-39.5,0-59.2,0c-1.2,6.3-2.4,12.4-3.6,18.5c-1.6,8.6-6.6,12.8-15.3,12.9
		c-7.6,0-15.2,0-22.9,0c-9.2,0-14.2-4.1-15.9-13.1c-2.2-11.6-4.4-23.3-6.8-34.9c-0.3-1.5-1.5-3.2-2.8-3.9
		c-30.4-17.7-49.5-43.4-55.2-78.4c-1.6-9.9-1.7-20.1-2.5-30.9c-1.3-0.9-2.2,0.4-3.4,2.2c-7,10.8-16.1,18.7-29.6,19.9
		c-3.7,0.3-6.6-0.6-8.5-4C0,232,0,230.8,0,229.5z M317.1,120.8c-0.4-4.5-0.7-9-1.3-13.4c-0.8-5.4-1.8-6.1-7.2-5.1
		c-16.4,3.1-31.6,9.9-46.7,16.8c-1.7,0.8-3.5,3.2-3.8,5.1c-0.9,6.5-1.8,13.2-1.4,19.7c1,15,10.3,26,25.1,28.7
		c19.4,3.6,24.2-1.7,29-15.8C314.8,145.2,316.5,133.2,317.1,120.8z M30.9,202.8c-1-6.3-3-10.6-7.7-13c-2.7-1.4-5.1-0.2-6.9,3.1
		c-1.5,2.7-0.1,4.4,2.1,5.3C22.3,199.8,26.2,201.1,30.9,202.8z"/>
	<path d="M178.6,111.3c-0.1,2.5,0.3,5.5-2.9,5.2c-1.5-0.1-2.7-2.5-4-3.9c0.2-0.2,0.5-0.5,0.7-0.7c-3.3-0.8-6.7-1-9.7-2.4
		c-3.2-1.4-6.3-3.5-8.8-6c-2.5-2.4-1.9-5.9,0.4-8c2.6-2.4,4.4-0.3,6.6,1.1c3.5,2.2,7.2,4.1,10.8,6.1c0.4-0.3,0.7-0.6,1.1-0.9
		c0-7.3,0-14.6-0.1-21.9c0-0.6-1.2-1.4-2-1.8c-2.2-1.1-4.6-1.9-6.8-3c-7.1-3.7-10.4-9.6-9.7-17.1c0.7-7.8,4.9-12.9,12.3-15.3
		c1.9-0.6,3.8-1,5.2-2.1c1.4-1.5,2.9-2.9,4.3-4.4c1.2,1.3,2.4,2.6,4.3,4.6c2.8,0.7,6.9,1.6,10.9,3c2.6,0.9,4.1,2.8,3.4,5.8
		c-0.8,3.4-3.1,4.7-6.4,3.4c-2.9-1.1-5.8-2.1-9.4-3.5c0,7.1,0,13.2,0.1,19.4c0,0.6,0.9,1.4,1.6,1.7c1.3,0.7,2.7,1.2,4.1,1.8
		c8.9,4.3,13,11.1,12.1,20.4c-0.9,9.7-5.8,15.3-15.8,18C180,110.9,179.4,111.1,178.6,111.3z M178,101.1c4.9-0.2,8-3.2,8.5-8.1
		c0.6-5.4-2.5-9.7-8.5-11.5C178,88,178,94.5,178,101.1z M173,67.7c0-5.9,0-11.6,0-17.3c-5.8,0.7-8.8,3.1-9.2,7.3
		C163.3,62.4,166.3,65.7,173,67.7z"/>
	<path d="M304.3,223c-9.6,0-17.5-7.2-18.3-16.8c-0.3-3.7,1.6-6.5,4.8-6.8c3.4-0.4,5.6,1.5,6.3,5.4c0.8,4.6,3.4,7.1,7.3,7.1
		c3.8-0.1,6.3-2.5,7-6.9c0.7-4,3-6,6.6-5.5c3.2,0.5,4.9,3.2,4.6,7C321.6,215.7,313.7,223,304.3,223z"/>
</g>
</svg>
