<?xml version="1.0" encoding="utf-8"?>
<!-- Generator: Adobe Illustrator 23.0.6, SVG Export Plug-In . SVG Version: 6.00 Build 0)  -->
<svg version="1.1" id="Laag_1" xmlns="http://www.w3.org/2000/svg" xmlns:xlink="http://www.w3.org/1999/xlink" x="0px" y="0px"
	 viewBox="0 0 157.7 360" style="enable-background:new 0 0 157.7 360;" xml:space="preserve">
<style type="text/css">
	path {fill:#65BB98;}
</style>
<g>
	<path d="M67.3,360.6c0.1-0.3,0-0.4-0.3-0.5c-3.5-0.8-6.6-2.5-9.6-4.5c-0.5-0.3-0.9-0.4-1.4-0.4c-9.6,0-19.3,0-28.9,0
		c-3.2,0-6.1-0.8-9-1.9c-4.4-1.7-8.1-4.4-11.2-7.9c-3-3.4-5-7.4-6.2-11.7c-0.5-1.7-0.5-3.3-0.5-5c0-16.2,0.1-32.5,0-48.7
		c0-4.3,1.3-8.1,3.2-11.7c1.6-3,3.7-5.6,6.3-7.7c0.7-0.6,0.5-1-0.1-1.4c-3.8-3-6.5-6.8-8.1-11.3c-1.7-5.1-1.9-10.2-0.4-15.4
		c1.4-4.7,3.9-8.7,7.6-11.9c0.6-0.6,0.8-1,0.1-1.6c-3.3-2.8-5.7-6.3-7.3-10.4c-0.7-1.9-1.4-3.9-1.4-6c0.1-2.7-0.3-5.4,0.4-8
		c1.4-5.7,4.2-10.6,8.9-14.2c0.9-0.7,0.8-1,0-1.7c-3.3-2.8-5.7-6.4-7.5-10.4c-1.3-3.1-1.8-6.2-1.8-9.5c0.1-17.2,0.1-34.4,0-51.6
		c0-1.9,0.6-3.3,1.7-4.7c4.7-5.9,9.2-11.8,13.9-17.7c4.2-5.4,8.4-10.8,12.6-16.2c4-5.1,8-10.2,12-15.4c3.2-4.1,6.4-8.2,9.6-12.4
		c0.2-0.3,0.7-0.5,0.4-0.9c-0.2-0.4-0.6-0.1-1-0.1c-3,0-6,0-9,0c-0.9,0-1.1-0.5-1.1-1.3c0-2.8,0-5.6,0-8.4c0-9.4,0-18.8,0-28.2
		c0-1,0.2-1.3,1.2-1.3c25.6,0,51.1,0,76.7,0c1,0,1.3,0.2,1.3,1.3c0,12.1,0,24.2,0,36.2c0,1.4-0.2,1.6-1.6,1.6c-2.7,0-5.4,0-8,0
		c-0.3,0-0.7-0.1-0.9,0.2c-0.1,0.3,0.2,0.6,0.4,0.8c5,6.5,9.9,12.9,14.9,19.4c6,7.8,12.1,15.7,18.1,23.5
		c5.1,6.6,10.1,13.2,15.2,19.7c0.9,1.2,1.3,2.3,1.3,3.8c0,17.4,0,34.8-0.1,52.2c0,4.3-1.4,8.2-3.4,12c-1.5,2.9-3.5,5.4-6,7.5
		c-0.6,0.5-0.6,0.9,0,1.4c3.7,2.8,6.3,6.5,8.1,10.8c0.9,2.1,1.6,4.4,1.4,6.8c-0.1,1.4-0.1,2.7,0,4.1c0.2,4.7-1.7,8.7-4.2,12.4
		c-1.2,1.8-2.5,3.4-4.2,4.7c-0.7,0.5-0.5,0.9,0.1,1.4c2.9,2.5,4.9,5.6,6.6,9c2.3,4.7,2.1,9.7,1.6,14.5c-0.4,3.9-2.3,7.4-4.7,10.6
		c-1.3,1.7-2.7,3.3-4.5,4.6c-0.8,0.5-0.7,0.9,0,1.5c4.1,3.6,6.7,8.1,8.3,13.3c0.9,3,1.1,5.9,1,9c0,14.8,0,29.5,0,44.3
		c0,6.2-2,11.8-5.7,16.8c-3.2,4.5-7.5,7.6-12.5,9.6c-2.5,1-5.1,1.7-7.8,1.7c-9.1,0-18.2,0.1-27.4,0c-2.1,0-3.8,0.5-5.5,1.6
		c-2.3,1.6-4.9,2.6-7.6,3.3c-0.3,0.1-0.6,0.1-0.4,0.5C82.8,360.6,75,360.6,67.3,360.6z M78.6,113c-22.1,0-44.2,0-66.2,0
		c-1.2,0-1.5,0.4-1.5,1.5c0.1,10.9,0.1,21.8,0.1,32.6c0,3.4-0.1,6.9,0,10.3c0.1,4.9,1.8,9.2,5.4,12.6c3.4,3.3,7.5,4.8,12.2,4.8
		c18.1,0,36.2,0,54.4,0c2,0,2,0,2,2c0,2.5,0,5,0,7.6c0,1.9,0,1.9-1.9,1.9c-19.1,0-38.2,0-57.2,0c-3,0-5.7,0.6-8.3,2.3
		c-3.3,2.2-5.3,5.2-6,9c-0.4,2.3-0.3,4.7,0.4,7.1c1,3.2,3,5.6,5.7,7.4c2.6,1.8,5.5,2.2,8.5,2.2c18.9,0,37.8,0,56.8,0
		c1.7,0,1.9,0.2,1.9,1.9c0,2.5,0,5,0,7.6c0,1.9,0,1.9-1.9,1.9c-18.8,0-37.7,0-56.5,0c-2.6,0-5.1,0.3-7.4,1.5
		c-4.1,2.1-6.7,5.5-7.5,9.9c-0.5,3-0.3,6.1,1.2,9c2.2,4.1,5.5,6.7,10.1,7.5c1.7,0.3,3.5,0.3,5.3,0.3c13.4,0,26.9,0,40.3,0
		c4.9,0,9.8,0,14.8,0c1.6,0,1.8,0.2,1.8,1.8c0,2.5,0,5,0,7.6c0,1.9-0.1,2-1.9,2c-17.8,0-35.7,0-53.5,0c-2,0-4,0-5.9,0.6
		c-2.7,0.8-5.1,2-7.2,3.9c-4.1,3.6-5.5,8.3-5.5,13.5c0,14,0,28.1,0,42.1c0,3.1,0.4,6.1,1.9,8.9c3.3,6.4,8.6,9.6,15.6,9.9
		c5.8,0.2,11.6,0,17.4,0c0.4,0,0.8,0,1.2,0c0.5,0,0.7-0.2,0.5-0.7c-1.5-3.2-2-6.6-2.3-10.1c-0.1-1,0.4-1.2,1.1-1.3c3,0,6,0,9,0
		c0.8,0,1.2,0.3,1.1,1.2c-0.1,1.6,0.3,3.1,0.9,4.6c2.5,6.9,7.5,10.9,14.8,11.8c4.1,0.5,8.2,0.3,12.3,0.1c3.5-0.1,6.8-1,9.7-3.2
		c4.4-3.2,6.9-7.6,7.2-13c0.1-1,0.5-1.4,1.5-1.4c2.8,0,5.7,0,8.5,0c1.1,0,1.4,0.4,1.4,1.4c-0.1,3.1-0.9,6.1-2,9
		c-0.4,1.2-0.3,1.5,1,1.5c5.8,0,11.7,0,17.5,0c2.4,0,4.8-0.4,7-1.5c6.2-3.1,9.8-8.1,9.8-15.1c0.1-15.5,0-31,0.1-46.4
		c0-2.9-0.7-5.6-2.2-8.1c-3-5-7.5-7.6-13.3-7.8c-3.6-0.1-7.3,0-10.9,0c-1.5,0-1.7-0.2-1.7-1.6c0-2.7,0-5.4,0-8
		c0-1.5,0.2-1.7,1.7-1.7c4,0,7.9,0,11.9,0c2.7,0,5.3-0.3,7.7-1.7c3.3-1.9,5.6-4.6,6.7-8.2c1.1-3.3,0.8-6.7-0.6-9.9
		c-1.7-3.7-4.5-6.3-8.4-7.6c-1.9-0.7-3.8-0.7-5.8-0.7c-3.8-0.1-7.7,0-11.5,0c-1.5,0-1.6-0.1-1.6-1.7c0-2.6,0-5.2,0-7.8
		c0-1.7,0.2-1.9,1.9-1.9c4.5,0,9,0,13.6,0c2.3,0,4.5-0.7,6.4-2c3.4-2.2,5.5-5.2,6.4-9.3c0.7-3.2,0.2-6.3-1.2-9
		c-2.6-5.1-6.9-7.7-12.7-7.7c-4.2,0-8.5,0-12.7,0c-1.6,0-1.7-0.1-1.7-1.7c0-2.7,0-5.4,0-8.2c0-1.1,0.4-1.6,1.6-1.5c3.3,0,6.6,0,10,0
		c2.4,0,4.7-0.4,6.8-1.4c6.1-2.9,9.5-7.8,9.7-14.5c0.3-10.2,0.1-20.5,0.1-30.7c0-4.6,0-9.1,0-13.7c0-1.5,0.1-1.5-1.5-1.5
		C122.6,113,100.6,113,78.6,113z M79,101.6c20,0,40.1,0,60.1,0c0.2,0,0.5,0,0.7,0c0.2,0,0.5,0,0.6-0.2c0.1-0.3-0.1-0.4-0.3-0.6
		c-0.7-0.9-1.5-1.9-2.2-2.8c-4.7-6-9.3-12.1-14-18.1c-3.6-4.6-7.2-9.3-10.8-13.9c-3.3-4.3-6.6-8.5-9.9-12.8
		c-3.2-4.2-6.4-8.4-9.6-12.6c-0.5-0.7-1.1-0.9-1.9-0.9c-8.4,0-16.8,0-25.2,0c-1.3,0-2.1,0.4-2.8,1.4c-7,9.1-14,18.2-21,27.3
		c-6.6,8.5-13.1,17.1-19.7,25.6c-1.8,2.3-3.5,4.5-5.3,6.8c-0.2,0.2-0.4,0.4-0.3,0.7c0.2,0.3,0.5,0.2,0.8,0.2c0.2,0,0.4,0,0.6,0
		C38.9,101.6,59,101.6,79,101.6z M78.5,28.4c8.9,0,17.8,0,26.6,0c0.3,0,0.6,0,0.8,0c0.6,0,0.8-0.2,0.8-0.9
		c-0.1-4.9-0.1-9.8-0.1-14.6c0-1.6,0.1-1.6-1.6-1.6c-17.8,0-35.5,0-53.3,0c-0.3,0-0.6,0-0.8,0c-0.6,0-0.7,0.2-0.7,0.8
		c0.1,5,0.1,9.9,0,14.9c0,1.2,0.3,1.4,1.4,1.4C60.7,28.4,69.6,28.4,78.5,28.4z"/>
	<path d="M101.5,214.3c1.5,0,3,0,4.6,0c1,0,1.5,0.4,1.5,1.4c0,2.9,0,5.8,0,8.8c0,0.9-0.4,1.3-1.3,1.4c-3.2,0-6.4,0-9.6,0
		c-0.8,0-1.2-0.4-1.2-1.3c0-3,0-5.9,0-8.9c0-1,0.5-1.4,1.4-1.4C98.4,214.3,100,214.3,101.5,214.3z"/>
	<path d="M101.5,174.8c1.5,0,3,0,4.6,0c1,0,1.5,0.4,1.5,1.4c0,2.9,0,5.8,0,8.6c0,1-0.4,1.4-1.5,1.4c-3.1,0-6.2,0-9.4,0
		c-0.9,0-1.3-0.4-1.3-1.3c0-3,0-5.9,0-8.9c0-1,0.5-1.3,1.4-1.3C98.4,174.9,100,174.8,101.5,174.8z"/>
	<path d="M101.4,265.2c-1.6,0-3.1,0-4.7,0c-0.9,0-1.3-0.4-1.3-1.3c0-3,0-5.9,0-8.9c0-0.8,0.4-1.2,1.2-1.2c3.2,0,6.5,0,9.7,0
		c0.9,0,1.2,0.5,1.2,1.3c0,2.9,0,5.8,0,8.8c0,1-0.6,1.3-1.4,1.3C104.6,265.2,103,265.2,101.4,265.2
		C101.4,265.2,101.4,265.2,101.4,265.2z"/>
	<path d="M56.5,67.8c1.6,0,3.1,0,4.7,0c0.9,0,1.3,0.4,1.3,1.3c0,2.9,0,5.8,0,8.8c0,1.1-0.6,1.3-1.5,1.3c-2.8,0-5.7,0-8.5,0
		c-1,0-1.3,0.2-1.3,1.3c0.1,2.8,0,5.7,0,8.5c0,1.1-0.4,1.5-1.5,1.5c-3,0-6.1,0-9.1,0c-0.9,0-1.4-0.3-1.4-1.3c0-3,0-5.9,0-8.9
		c0-0.9,0.3-1.2,1.2-1.2c3,0,6,0,9,0c0.8,0,1.1-0.1,1.1-1.1c-0.1-3,0-6-0.1-9c0-0.9,0.4-1.2,1.2-1.2C53.3,67.8,54.9,67.8,56.5,67.8
		C56.5,67.8,56.5,67.8,56.5,67.8z"/>
</g>
</svg>
